<svg width="91" height="91" viewBox="0 0 91 91" fill="none" xmlns="http://www.w3.org/2000/svg">
<rect width="91" height="91" rx="45.5" fill="#FAC663"/>
<path d="M47.1588 46.617C50.4341 46.617 53.1139 50.0596 53.1139 50.9203C53.1139 51.7809 50.4341 54.6498 47.1588 54.6498C43.8835 54.6498 41.5015 50.9203 41.5015 50.9203C41.5015 50.9203 43.8835 46.617 47.1588 46.617Z" fill="#FFFDFB"/>
<path d="M37.9285 47.4777L41.5015 50.9203M41.5015 50.9203L37.9285 54.3629M41.5015 50.9203C41.5015 50.9203 43.8835 54.6498 47.1588 54.6498C50.4341 54.6498 53.1139 51.7809 53.1139 50.9203C53.1139 50.0596 50.4341 46.617 47.1588 46.617C43.8835 46.617 41.5015 50.9203 41.5015 50.9203Z" stroke="#FFFDFB" stroke-width="2" stroke-linecap="round" stroke-linejoin="round"/>
<path d="M42.7715 29.2148C44.9219 27.9826 47.1358 28.5888 48.2285 29.2148L48.4023 29.3145L48.5967 29.2666C49.8294 28.9617 52.1289 28.9791 53.8271 30.7432L53.9678 30.8896L54.1709 30.8955C54.4932 30.9063 57.3627 31.0418 58.752 33.7227L58.8467 33.9062L59.0439 33.9688C59.3415 34.064 61.9081 34.9075 62.5586 37.7168L62.6484 38.1045H67.1211C67.6263 38.1046 68.0376 38.4378 68.1455 38.8721L68.1631 38.9609L71.4902 61.3682C71.5261 61.6117 71.4651 61.8607 71.3174 62.0654L71.249 62.1504C71.0509 62.3699 70.759 62.5 70.4473 62.5H20.5527C20.2797 62.5 20.0216 62.4004 19.8291 62.2285L19.751 62.1504C19.5787 61.9591 19.4923 61.7166 19.501 61.4727L19.5098 61.3682H19.5107L22.8369 38.9609C22.9077 38.4841 23.3397 38.1045 23.8789 38.1045H28.3506L28.4404 37.7168C29.0893 34.9121 31.6559 34.0647 31.9561 33.9688L32.1523 33.9062L32.2471 33.7227C33.6356 31.0414 36.5104 30.9063 36.8291 30.8955L37.0312 30.8887L37.1719 30.7432C38.8698 28.9795 41.1702 28.9617 42.4033 29.2666L42.5977 29.3145L42.7715 29.2148ZM23.54 38.7969L20.0615 61.6572L19.9746 62.2324H71.0254L70.9375 61.6572L67.459 38.7969L67.3945 38.3721H23.6055L23.54 38.7969ZM45.499 29.3467C44.8307 29.347 44.123 29.5319 43.5938 29.9453L43.4902 30.0312C43.2108 30.2773 42.8138 30.36 42.4541 30.252L42.3027 30.1934L42.1777 30.1387C41.5488 29.8852 40.8175 29.9004 40.1758 30.083C39.5351 30.2653 38.9097 30.6358 38.5215 31.1787L38.4473 31.29C38.2284 31.6386 37.7997 31.8342 37.3623 31.7627L37.0986 31.7344C36.4632 31.7016 35.7064 31.887 35.0635 32.1885C34.3893 32.5046 33.6846 33.0229 33.4209 33.7285L33.374 33.8721C33.2799 34.2094 33.0029 34.4803 32.6416 34.5762L32.4814 34.6064C32.3259 34.6241 32.1846 34.7046 32.1113 34.748C32.0146 34.8054 31.908 34.8803 31.7979 34.9639C31.5761 35.1321 31.3122 35.3584 31.0449 35.6133C30.5852 36.0517 30.0748 36.6113 29.7383 37.1406L29.6045 37.3652L29.2021 38.1045H61.7979L61.3945 37.3652L61.127 36.9072C60.8418 36.4479 60.5127 35.9931 60.2217 35.623C60.0272 35.3757 59.8439 35.1592 59.6953 35C59.6219 34.9214 59.5498 34.8493 59.4854 34.793C59.4538 34.7654 59.4155 34.7332 59.373 34.7051C59.3562 34.6939 59.2959 34.6534 59.209 34.627L59.1143 34.6064H59.1133C58.6753 34.5566 58.3288 34.2574 58.2217 33.8721L58.1748 33.7305C57.9141 33.0333 57.2158 32.514 56.5439 32.1953C55.9026 31.8911 55.1443 31.7013 54.501 31.7344L54.2324 31.7627C53.7949 31.8336 53.3674 31.6384 53.1484 31.29L53.0635 31.168C52.8547 30.8911 52.5659 30.6719 52.2598 30.5039C51.9057 30.3096 51.4979 30.1657 51.0859 30.0732C50.3357 29.9049 49.4697 29.8859 48.8242 30.1387L48.6982 30.1934C48.352 30.3566 47.9465 30.3256 47.6367 30.127L47.5098 30.0312L47.4062 29.9453C46.8755 29.5307 46.1674 29.3464 45.499 29.3467ZM45.7002 30.3545C46.0972 30.3842 46.4592 30.5018 46.7246 30.6846L46.8496 30.7812C47.4333 31.2952 48.261 31.4355 48.9814 31.1592L49.124 31.0977C49.4918 30.9243 50.1668 30.8917 50.8672 31.0488C51.2055 31.1247 51.522 31.2396 51.7793 31.3809C52.0408 31.5245 52.2124 31.6801 52.3018 31.8223V31.8213C52.7151 32.4794 53.4718 32.8365 54.2402 32.7686L54.3936 32.749H54.3945C54.8177 32.6799 55.4912 32.8026 56.1152 33.0986C56.676 33.3646 57.0583 33.7036 57.208 34.0107L57.2578 34.1396C57.4665 34.8908 58.0989 35.4404 58.8613 35.5791C58.8877 35.6044 58.9227 35.6375 58.9639 35.6816C59.0877 35.8143 59.2524 36.0084 59.4355 36.2412C59.6387 36.4996 59.8566 36.7984 60.0615 37.1045H31.0098C31.23 36.8429 31.4826 36.5779 31.7354 36.3369C31.9821 36.1016 32.217 35.9003 32.4023 35.7598C32.4955 35.6891 32.5698 35.6394 32.6221 35.6084C32.6347 35.6009 32.6441 35.5947 32.6514 35.5908C33.3999 35.4851 34.0353 34.9876 34.291 34.2861L34.3379 34.1396C34.4343 33.7928 34.8459 33.3956 35.4873 33.0947C36.1128 32.8014 36.7862 32.6807 37.2012 32.748V32.749C38.0213 32.883 38.8527 32.5225 39.293 31.8213L39.2939 31.8223C39.5066 31.4838 39.9309 31.1924 40.4492 31.0449C40.9016 30.9162 41.3615 30.9156 41.7256 31.0381L41.876 31.0977C42.5803 31.4299 43.4164 31.3437 44.0312 30.8799L44.1514 30.7812C44.4587 30.5109 44.9563 30.347 45.499 30.3467L45.7002 30.3545Z" fill="#FFFDFB" stroke="#FFFDFB" stroke-width="0.999999"/>
</svg>
